<?xml version="1.0" standalone="no"?><!DOCTYPE svg PUBLIC "-//W3C//DTD SVG 1.1//EN" "http://www.w3.org/Graphics/SVG/1.1/DTD/svg11.dtd"><svg width="33.25" height="32" viewBox="0 0 33.25 32" version="1.1" xmlns="http://www.w3.org/2000/svg" xmlns:xlink="http://www.w3.org/1999/xlink"><defs><style type="text/css"><![CDATA[
@font-face { font-family: ifont; src: url("//at.alicdn.com/t/font_1442373896_4754455.eot?#iefix") format("embedded-opentype"), url("//at.alicdn.com/t/font_1442373896_4754455.woff") format("woff"), url("//at.alicdn.com/t/font_1442373896_4754455.ttf") format("truetype"), url("//at.alicdn.com/t/font_1442373896_4754455.svg#ifont") format("svg"); }

]]></style></defs><g class="transform-group"><g transform="scale(0.03125, 0.03125)"><path d="M293.640211 31.864971 243.376922 31.864971c-111.046446 0-201.098961 90.037246-201.098961 201.098961l0 50.278557c0 111.046446 90.037246 201.098961 201.098961 201.098961l251.36225 0L494.739171 232.963932C494.739171 121.917485 404.701925 31.864971 293.640211 31.864971zM419.32897 408.91598 255.942744 408.91598c-76.372106 0-138.254581-61.882476-138.254581-138.254581l0-25.131644c0-76.372106 61.882476-138.254581 138.254581-138.254581l25.131644 0c76.372106 0 138.254581 61.882476 138.254581 138.254581L419.32897 408.91598zM811.648292 31.864971l-50.278557 0c-111.046446 0-201.098961 90.037246-201.098961 201.098961l0 251.36225 251.36225 0c111.046446 0 201.098961-90.037246 201.098961-201.098961l0-50.278557C1012.747253 121.917485 922.694738 31.864971 811.648292 31.864971zM937.337051 270.676667c0 76.372106-61.882476 138.254581-138.254581 138.254581L635.696244 408.931248 635.696244 245.529754c0-76.372106 61.882476-138.254581 138.254581-138.254581l25.131644 0c76.372106 0 138.254581 61.882476 138.254581 138.254581L937.337051 270.676667zM243.376922 549.873052c-111.046446 0-201.098961 90.037246-201.098961 201.098961l0 50.278557c0 111.046446 90.037246 201.098961 201.098961 201.098961l50.278557 0c111.046446 0 201.098961-90.037246 201.098961-201.098961L494.75444 549.873052 243.376922 549.873052zM419.32897 788.66948c0 76.372106-61.882476 138.254581-138.254581 138.254581l-25.131644 0c-76.372106 0-138.254581-61.882476-138.254581-138.254581l0-25.131644c0-76.372106 61.882476-138.254581 138.254581-138.254581l163.386226 0L419.32897 788.66948zM811.648292 549.873052 560.286042 549.873052 560.286042 801.235302c0 111.046446 90.037246 201.098961 201.098961 201.098961l50.278557 0c111.046446 0 201.098961-90.037246 201.098961-201.098961l0-50.278557C1012.747253 639.910299 922.694738 549.873052 811.648292 549.873052zM937.337051 788.66948c0 76.372106-61.882476 138.254581-138.254581 138.254581l-25.131644 0c-76.372106 0-138.254581-61.882476-138.254581-138.254581L635.696244 625.283254l163.386226 0c76.372106 0 138.254581 61.882476 138.254581 138.254581L937.337051 788.66948z" fill="#fff"></path></g></g></svg>