<?xml version="1.0" standalone="no"?><!DOCTYPE svg PUBLIC "-//W3C//DTD SVG 1.1//EN" "http://www.w3.org/Graphics/SVG/1.1/DTD/svg11.dtd"><svg width="32" height="32" viewBox="0 0 32 32" version="1.1" xmlns="http://www.w3.org/2000/svg" xmlns:xlink="http://www.w3.org/1999/xlink"><defs><style type="text/css"><![CDATA[
@font-face { font-family: ifont; src: url("//at.alicdn.com/t/font_1442373896_4754455.eot?#iefix") format("embedded-opentype"), url("//at.alicdn.com/t/font_1442373896_4754455.woff") format("woff"), url("//at.alicdn.com/t/font_1442373896_4754455.ttf") format("truetype"), url("//at.alicdn.com/t/font_1442373896_4754455.svg#ifont") format("svg"); }

]]></style></defs><g class="transform-group"><g transform="scale(0.03125, 0.03125)"><path d="M715.436342 780.14204c-21.404496 0-38.724976 17.3389-38.724976 38.724976l0 30.31033c0 18.379603-14.938224 33.335223-33.316803 33.335223L176.316681 882.512568c-18.379603 0-33.354666-14.956643-33.354666-33.335223L142.962016 382.098441c0-18.379603 14.976086-33.316803 33.354666-33.316803l26.888394 0c21.404496 0 38.724976-17.3389 38.724976-38.724976s-17.320481-38.724976-38.724976-38.724976l-26.888394 0c-61.112869 0-110.803595 49.691749-110.803595 110.765733l0 467.078905c0 61.093427 49.691749 110.785176 110.803595 110.785176l467.078905 0c61.075007 0 110.765733-49.691749 110.765733-110.785176l0-30.31033C754.161319 797.48094 736.840838 780.14204 715.436342 780.14204zM842.313008 64.037479 386.012587 64.037479c-64.062038 0-116.173906 52.111868-116.173906 116.173906l0 456.282001c0 64.062038 52.111868 116.173906 116.173906 116.173906l456.30042 0c64.062038 0 116.173906-52.111868 116.173906-116.173906l0-456.282001C958.486914 116.149347 906.375046 64.037479 842.313008 64.037479zM881.037984 636.493385c0 21.348214-17.358343 38.724976-38.724976 38.724976L386.012587 675.218362c-21.366633 0-38.724976-17.376763-38.724976-38.724976l0-456.282001c0-21.348214 17.358343-38.724976 38.724976-38.724976l456.30042 0c21.366633 0 38.724976 17.376763 38.724976 38.724976L881.037984 636.493385z" fill="#fff"></path></g></g></svg>