<?xml version="1.0" standalone="no"?><!DOCTYPE svg PUBLIC "-//W3C//DTD SVG 1.1//EN" "http://www.w3.org/Graphics/SVG/1.1/DTD/svg11.dtd"><svg t="1481534912536" class="icon" style="" viewBox="0 0 1024 1024" version="1.1" xmlns="http://www.w3.org/2000/svg" p-id="1836" xmlns:xlink="http://www.w3.org/1999/xlink" width="32" height="32"><defs><style type="text/css"></style></defs><path d="M909.718069 139.899586l-75.987862 0.03531c-1.271172-0.123586-2.454069-0.388414-3.813517-0.388414s-2.577655 0.282483-3.884138 0.406069L564.594759 140.076138l0.088276-46.786207c0-23.216552-19.350069-42.01931-42.566621-42.01931-3.742897 0-6.920828 0.317793-10.20469 0.564966-3.54869-0.247172-6.938483-0.564966-11.034483-0.564966-23.198897 0-42.01931 18.802759-42.01931 42.01931l0.194207 46.839172L204.093793 140.25269c-2.983724-0.812138-6.161655-1.377103-9.675034-1.377103-3.531034 0-6.744276 0.564966-9.780966 1.394759L109.550345 140.288c-23.198897 0-39.318069 9.304276-39.318069 32.520828 0 23.198897 16.101517 35.945931 39.318069 35.945931l48.728276-0.017655 0.353103 681.207172c1.889103 44.57931 35.557517 80.189793 80.648828 80.189793l42.036966 0 0 0.370759 462.318345-0.282483 0-0.088276L785.655172 970.134069c46.344828 0 79.36-37.499586 79.465931-83.809103L864.750345 208.401655l44.967724-0.017655c23.198897 0 42.01931-12.729379 42.01931-35.945931C951.737379 149.221517 932.934621 139.899586 909.718069 139.899586zM794.07669 816.180966c0.282483 55.225379-10.292966 75.528828-47.633655 81.708138L268.888276 898.171586c-23.340138-4.996414-34.692414-17.019586-39.335724-42.707862l-0.335448-646.761931 564.841931-0.282483 0.353103 689.416828L794.07669 816.180966zM406.068966 280.699586c-19.508966 0-35.310345 15.801379-35.310345 35.310345l0 476.689655c0 19.508966 15.801379 35.310345 35.310345 35.310345 19.49131 0 35.310345-15.801379 35.310345-35.310345l0-476.689655C441.37931 296.500966 425.560276 280.699586 406.068966 280.699586zM617.931034 280.699586c-19.508966 0-35.310345 15.801379-35.310345 35.310345l0 476.689655c0 19.508966 15.801379 35.310345 35.310345 35.310345 19.49131 0 35.310345-15.801379 35.310345-35.310345l0-476.689655C653.241379 296.500966 637.422345 280.699586 617.931034 280.699586z" p-id="1837" fill="#171717"></path></svg>