<?xml version="1.0" standalone="no"?><!DOCTYPE svg PUBLIC "-//W3C//DTD SVG 1.1//EN" "http://www.w3.org/Graphics/SVG/1.1/DTD/svg11.dtd"><svg width="32" height="32" viewBox="0 0 32 32" version="1.1" xmlns="http://www.w3.org/2000/svg" xmlns:xlink="http://www.w3.org/1999/xlink"><defs><style type="text/css"><![CDATA[
@font-face { font-family: ifont; src: url("//at.alicdn.com/t/font_1442373896_4754455.eot?#iefix") format("embedded-opentype"), url("//at.alicdn.com/t/font_1442373896_4754455.woff") format("woff"), url("//at.alicdn.com/t/font_1442373896_4754455.ttf") format("truetype"), url("//at.alicdn.com/t/font_1442373896_4754455.svg#ifont") format("svg"); }

]]></style></defs><g class="transform-group"><g transform="scale(0.03125, 0.03125)"><path d="M698.444 147.804l8.7 186.4-26 0c-11.6-60.7-28.9-99.7-52-117-20.2-17.3-62.2-26-125.7-26l-60.7 0 0 567.9c0 40.5 5.8 66.5 17.3 78 14.4 11.6 44.8 18.8 91 21.7l0 21.7-325.1 0L225.944 858.704c46.2-2.8 75.1-11.5 86.7-26 11.5-8.7 17.3-37.5 17.3-86.7l0-554.9L269.344 191.104c-63.6 0-105.5 8.7-125.7 26-23.2 17.3-40.5 56.4-52 117l-26 0 8.7-186.4L698.444 147.704zM960.844 479.604l4.8 104-14.5 0c-6.5-33.9-16.1-55.6-29-65.3-11.3-9.7-34.7-14.5-70.2-14.5l-33.9 0L818.044 820.704c0 22.6 3.2 37.1 9.7 43.6 8.1 6.5 25 10.5 50.8 12.1l0 12.1L697.144 888.504l0-12.1c25.8-1.6 41.9-6.4 48.4-14.5 6.4-4.8 9.7-20.9 9.7-48.4l0-309.7L721.344 503.804c-35.5 0-58.9 4.8-70.2 14.5-12.9 9.7-22.6 31.5-29 65.3l-14.5 0 4.8-104L960.844 479.604z" fill="#ffffff"></path></g></g></svg>