<?xml version="1.0" standalone="no"?><!DOCTYPE svg PUBLIC "-//W3C//DTD SVG 1.1//EN" "http://www.w3.org/Graphics/SVG/1.1/DTD/svg11.dtd"><svg width="32" height="32" viewBox="0 0 32 32" version="1.1" xmlns="http://www.w3.org/2000/svg" xmlns:xlink="http://www.w3.org/1999/xlink"><defs><style type="text/css"><![CDATA[
@font-face { font-family: ifont; src: url("//at.alicdn.com/t/font_1442373896_4754455.eot?#iefix") format("embedded-opentype"), url("//at.alicdn.com/t/font_1442373896_4754455.woff") format("woff"), url("//at.alicdn.com/t/font_1442373896_4754455.ttf") format("truetype"), url("//at.alicdn.com/t/font_1442373896_4754455.svg#ifont") format("svg"); }

]]></style></defs><g class="transform-group"><g transform="scale(0.03125, 0.03125)"><path d="M961.216 840.992l0-656.672c0-119.392-102.88-119.392-119.392-119.392l-656.704 0c-16.48 0-119.392 0-119.392 119.392l0 656.672c0 119.392 119.392 119.392 119.392 119.392l656.704 0c34.432 0 58.688-10.048 76.128-24.224 1.12-0.832 2.24-1.664 3.296-2.56 4-3.488 7.648-7.232 10.88-11.104 0.928-1.12 1.696-2.304 2.56-3.488C961.024 884.544 961.216 840.992 961.216 840.992zM188 129.664l645.888 0c16.256 0 58.72 0 58.72 58.72l0 645.824c0 0-0.16 33.888-26.048 50.144-43.072-45.216-161.344-169.216-191.232-199.104-22.24-22.24-45.216-27.264-59.168-26.528-30.08 0.416-49.536 19.296-50.912 20.928l-61.888 53.92c-12.544 11.904-22.976 1.504-28-3.552-37.824-37.856-111.136-103.264-120.32-111.424-6.08-6.08-27.52-25.12-58.464-25.856-16.192-0.8-40.704 4.32-65.344 28.96-22.944 22.944-66.944 63.52-101.952 95.424l0-528.736C129.312 129.664 171.776 129.664 188 129.664zM129.312 832.032l0-28.512c26.848-24.224 110.784-100.16 147.2-136.608 4.704-4.672 11.2-10.976 18.336-10.24 7.52 0.032 14.4 6.592 14.464 6.592 0 0 0 0 0 0l2.4 2.336c0.8 0.704 80.224 71.392 118.432 109.632 23.296 23.328 47.168 26.784 62.048 27.776 32.928-0.416 54.752-22.432 54.912-22.816l61.792-53.792c6.368-6.016 12.32-4.8 21.216 4.064 23.104 23.136 103.008 106.656 156.224 162.4-139.264-0.064-540.96-0.256-594.304-0.256C127.328 892.672 129.312 832.032 129.312 832.032zM662.688 550.464c83.584 0 151.584-68.096 151.584-151.776s-68-151.776-151.584-151.776-151.584 68.096-151.584 151.776S579.136 550.464 662.688 550.464zM662.688 310.912c48.288 0 87.584 39.36 87.584 87.776s-39.296 87.776-87.584 87.776-87.584-39.36-87.584-87.776S614.4 310.912 662.688 310.912z" fill="#ffffff"></path></g></g></svg>