<?xml version="1.0" standalone="no"?><!DOCTYPE svg PUBLIC "-//W3C//DTD SVG 1.1//EN" "http://www.w3.org/Graphics/SVG/1.1/DTD/svg11.dtd"><svg width="32" height="32" viewBox="0 0 32 32" version="1.1" xmlns="http://www.w3.org/2000/svg" xmlns:xlink="http://www.w3.org/1999/xlink"><defs><style type="text/css"><![CDATA[
@font-face { font-family: ifont; src: url("//at.alicdn.com/t/font_1442373896_4754455.eot?#iefix") format("embedded-opentype"), url("//at.alicdn.com/t/font_1442373896_4754455.woff") format("woff"), url("//at.alicdn.com/t/font_1442373896_4754455.ttf") format("truetype"), url("//at.alicdn.com/t/font_1442373896_4754455.svg#ifont") format("svg"); }

]]></style></defs><g class="transform-group"><g transform="scale(0.03125, 0.03125)"><path d="M511.378853 67.425645c-245.125837 0-443.819155 198.699458-443.819155 443.819155 0 245.12379 198.693318 443.819155 443.819155 443.819155 245.12379 0 443.819155-198.695365 443.819155-443.819155C955.198008 266.131243 756.502643 67.425645 511.378853 67.425645L511.378853 67.425645zM511.378853 874.372168c-200.546525 0-363.123274-162.571632-363.123274-363.122251 0-200.546525 162.576749-363.129414 363.123274-363.129414 200.550619 0 363.122251 162.582889 363.122251 363.129414C874.500081 711.801559 711.929472 874.372168 511.378853 874.372168L511.378853 874.372168zM390.339126 692.812065l342.953909-201.734584L390.339126 329.683674 390.339126 692.812065 390.339126 692.812065zM390.339126 692.812065" fill="#fff"></path></g></g></svg>